<svg width="128" height="128" viewBox="0 0 128 128" fill="none" xmlns="http://www.w3.org/2000/svg">
  <rect width="128" height="128" rx="28" fill="url(#bg_gradient)" />
  <!-- Main Star -->
  <path d="M64 28C64 47.8823 47.8823 64 28 64C47.8823 64 64 80.1177 64 100C64 80.1177 80.1177 64 100 64C80.1177 64 64 47.8823 64 28Z" fill="white" />
  <!-- Small Star -->
  <path d="M96 24C96 32.8366 88.8366 40 80 40C88.8366 40 96 47.1634 96 56C96 47.1634 103.163 40 112 40C103.163 40 96 32.8366 96 24Z" fill="white" />
  <!-- Tiny Star -->
  <path d="M32 76C32 80.4183 28.4183 84 24 84C28.4183 84 32 87.5817 32 92C32 87.5817 35.5817 84 40 84C35.5817 84 32 80.4183 32 76Z" fill="white" />
  <defs>
    <linearGradient id="bg_gradient" x1="0" y1="0" x2="128" y2="128" gradientUnits="userSpaceOnUse">
      <stop stop-color="#7C3AED" />
      <stop offset="0.5" stop-color="#F97316" />
      <stop offset="1" stop-color="#F59E0B" />
    </linearGradient>
  </defs>
</svg>
